<?xml version="1.0" encoding="UTF-8" standalone="no"?>
<svg width="202px" height="202px" viewBox="0 0 202 202" version="1.1" xmlns="http://www.w3.org/2000/svg" xmlns:xlink="http://www.w3.org/1999/xlink" xmlns:sketch="http://www.bohemiancoding.com/sketch/ns">
    <!-- Generator: Sketch 3.4.2 (15855) - http://www.bohemiancoding.com/sketch -->
    <title>icon_qi</title>
    <desc>Created with Sketch.</desc>
    <defs>
        <path d="M0,0 L202,0 L202,202 L0,202 L0,0 Z M67.016,127.368 L135.992,127.368 L135.992,134.856 L66.584,134.856 C66.872,132.552 67.016,129.96 67.016,127.368 Z M135.992,114.696 L67.016,114.696 L67.016,106.776 L52.904,106.776 L52.904,126.936 C52.76,141.48 48.44,151.992 39.8,158.616 L51.032,168.552 C57.08,163.368 61.544,156.456 64.136,147.528 L135.992,147.528 L135.992,168.264 L150.392,168.264 L150.392,105.768 L135.992,105.768 L135.992,114.696 Z M90.344,56.376 L83.576,63 L83.576,61.272 L41.384,61.272 L41.384,73.368 L51.896,73.368 C50.6,84.024 45.56,91.8 36.776,96.408 L43.544,107.352 C55.64,100.152 62.408,88.92 63.848,73.368 L71.192,73.368 L71.192,87.624 C71.192,91.944 70.04,94.248 68.024,94.248 L60.824,93.816 L63.704,104.616 L70.616,104.616 C79.256,104.616 83.576,100.152 83.576,91.512 L83.576,67.032 C87.608,70.488 91.064,73.8 94.232,77.256 L94.232,106.776 L107.768,106.776 L107.768,78.552 C111.944,75.096 115.832,71.064 119.432,66.168 L119.432,89.784 C119.432,92.952 118.136,95.544 115.688,97.56 L119.576,107.64 C129.368,105.336 137.432,102.888 143.48,100.44 L141.032,89.64 C138.728,90.792 135.416,92.232 131.24,93.672 L131.24,75.096 L137.288,74.232 C141.896,89.496 149.384,100.008 159.464,105.912 L166.808,95.256 C158.456,90.792 152.408,83.016 148.376,71.784 C151.832,70.632 155.144,69.48 158.312,68.04 L151.976,56.952 C143.624,60.552 133.256,63 120.872,64.296 L121.592,63.288 L111.08,56.232 C108.776,59.976 105.752,63.72 101.72,67.464 C98.264,63.72 94.376,60.12 90.344,56.376 L90.344,56.376 Z M37.784,43.272 L37.784,55.944 L164.216,55.944 L164.216,43.272 L109.64,43.272 C108.344,39.816 107.048,36.504 105.752,33.624 L88.904,36.504 C90.344,38.52 91.64,40.824 92.936,43.272 L37.784,43.272 Z" id="path-1"></path>
    </defs>
    <g id="Page-1" stroke="none" stroke-width="1" fill="none" fill-rule="evenodd" sketch:type="MSPage">
        <g id="iPad-Pro-Landscape" sketch:type="MSArtboardGroup" transform="translate(-133.000000, -104.000000)">
            <g id="icon_qi" sketch:type="MSLayerGroup" transform="translate(133.000000, 104.000000)">
                <mask id="mask-2" sketch:name="Mask" fill="white">
                    <use xlink:href="#path-1"></use>
                </mask>
                <use id="Mask" fill-opacity="0.88" fill="#1C1C1C" sketch:type="MSShapeGroup" xlink:href="#path-1"></use>
            </g>
        </g>
    </g>
</svg>